<?xml version="1.0" encoding="utf-8"?>
<!-- Generator: Adobe Illustrator 25.0.0, SVG Export Plug-In . SVG Version: 6.00 Build 0)  -->
<svg version="1.1" id="Layer_1" xmlns="http://www.w3.org/2000/svg" xmlns:xlink="http://www.w3.org/1999/xlink" x="0px" y="0px"
	 viewBox="0 0 40.12 76.85" style="enable-background:new 0 0 40.12 76.85;" xml:space="preserve">
<style type="text/css">
	.st0{fill-rule:evenodd;clip-rule:evenodd;fill:#FFFFFF;}
</style>
<path class="st0" d="M32,12.97c2.38-0.07,4.76-0.01,7.14-0.02h0.99V0.56c-1.27-0.13-2.61-0.31-3.94-0.37
	c-2.44-0.11-4.89-0.23-7.33-0.18C25.12,0.09,21.59,1,18.51,3.21c-3.53,2.55-5.48,6.12-6.22,10.34c-0.3,1.75-0.38,3.55-0.42,5.31
	c-0.08,2.78-0.02,5.56-0.02,8.34v1.04H0v13.84h11.78v34.77h14.4V42.14h11.74c0.6-4.6,1.19-9.15,1.81-13.9c-0.94,0-1.79,0-2.64,0
	c-3.33,0.01-11,0-11,0s0.03-6.86,0.12-9.83C26.31,14.33,28.73,13.09,32,12.97"/>
</svg>
