<?xml version="1.0" encoding="utf-8"?>
<!-- Generator: Adobe Illustrator 25.0.0, SVG Export Plug-In . SVG Version: 6.00 Build 0)  -->
<svg version="1.1" id="Layer_1" xmlns="http://www.w3.org/2000/svg" xmlns:xlink="http://www.w3.org/1999/xlink" x="0px" y="0px"
	 viewBox="0 0 76.91 76.87" style="enable-background:new 0 0 76.91 76.87;" xml:space="preserve">
<style type="text/css">
	.st0{fill:#000;}
</style>
<path class="st0" d="M76.29,19.28c-0.52-5.05-2.46-9.53-6.22-13.12c-3.95-3.77-8.8-5.44-14.1-5.72c-9.04-0.49-30.5-0.81-38.03,0.43
	C9.31,2.27,3.67,7.29,1.29,15.79c-1.83,6.55-1.47,36.71-0.39,43.17c1.46,8.84,6.69,14.51,15.45,16.78
	c6.07,1.56,35.88,1.36,42.57,0.28c8.85-1.44,14.55-6.63,16.85-15.38C77.51,53.92,76.89,25.34,76.29,19.28 M69.2,57.71
	c-1.03,6.72-5.48,10.88-12.23,11.62c-6.2,0.68-33.91,1.05-39.67-0.55c-5.5-1.54-8.65-5.32-9.56-10.87
	c-0.87-5.29-1.09-31.72-0.02-38.8C8.74,12.44,13.2,8.29,19.91,7.54c6.81-0.76,31.33-0.84,37.86,0.16
	c6.71,1.03,10.86,5.49,11.6,12.26C70.05,26.26,70.25,50.93,69.2,57.71 M38.46,18.72c-10.89-0.01-19.73,8.82-19.73,19.72
	c0,10.88,8.82,19.72,19.71,19.73c10.89,0,19.73-8.81,19.73-19.71C58.18,27.56,49.35,18.73,38.46,18.72 M38.33,51.17
	c-7.04-0.05-12.7-5.81-12.64-12.86c0.06-7.04,5.82-12.7,12.86-12.64c7.05,0.07,12.71,5.82,12.64,12.87
	C51.13,45.58,45.37,51.24,38.33,51.17 M63.57,17.98c-0.01,2.55-2.08,4.61-4.63,4.61c-2.54-0.01-4.61-2.08-4.6-4.63
	c0.01-2.55,2.08-4.61,4.62-4.61C61.51,13.35,63.57,15.43,63.57,17.98"/>
</svg>
