<?xml version="1.0" encoding="utf-8"?>
<!-- Generator: Adobe Illustrator 25.0.0, SVG Export Plug-In . SVG Version: 6.00 Build 0)  -->
<svg version="1.1" id="Layer_1" xmlns="http://www.w3.org/2000/svg" xmlns:xlink="http://www.w3.org/1999/xlink" x="0px" y="0px"
	 viewBox="0 0 94.46 76.87" style="enable-background:new 0 0 94.46 76.87;" xml:space="preserve">
<style type="text/css">
	.st0{fill-rule:evenodd;clip-rule:evenodd;fill:#000;}
</style>
<path class="st0" d="M28.65,60.15c-10.08-0.35-16.39-7.59-18.06-13.47c2.81,0.53,5.57,0.43,8.32-0.25c0.07-0.01,0.14-0.07,0.28-0.14
	c-5.46-1.26-9.68-4.19-12.6-8.9c-1.95-3.12-2.88-6.55-2.85-10.31c2.73,1.45,5.58,2.27,8.65,2.35c-4.11-2.96-6.87-6.83-7.99-11.77
	C3.27,12.72,3.99,8.03,6.47,3.6C16.98,15.98,30.28,22.76,46.5,23.88c-0.11-0.77-0.23-1.44-0.32-2.13
	c-0.53-4.57,0.38-8.82,2.85-12.69c3.08-4.85,7.49-7.85,13.15-8.77c6.53-1.07,12.22,0.79,16.99,5.41c0.33,0.31,0.59,0.41,1.04,0.31
	c3.99-0.87,7.74-2.31,11.29-4.34c0.09-0.04,0.17-0.09,0.26-0.13c0.02-0.01,0.05-0.01,0.13-0.01c-1.54,4.52-4.33,7.99-8.31,10.56
	c3.76-0.41,7.34-1.41,10.81-2.91c0.03,0.03,0.05,0.07,0.08,0.09c-0.74,0.97-1.46,1.96-2.23,2.91c-2.06,2.54-4.42,4.77-7.06,6.71
	c-0.22,0.16-0.33,0.32-0.32,0.61c0.11,2.88,0,5.76-0.36,8.62c-0.75,6.03-2.43,11.79-5,17.28c-2.65,5.67-6.13,10.8-10.49,15.3
	C61.6,68.34,52.7,73.26,42.33,75.55c-3.56,0.78-7.17,1.19-10.81,1.29c-11.19,0.33-21.54-2.46-31.05-8.33
	c-0.13-0.08-0.24-0.16-0.47-0.3c6.78,0.73,13.22-0.14,19.42-2.68C22.71,64.19,25.76,62.41,28.65,60.15"/>
</svg>
